<svg xmlns="http://www.w3.org/2000/svg" xmlns:svg="http://www.w3.org/2000/svg" id="svg7384" width="300" height="300" version="1.1"><metadata id="metadata90"/><title id="title9167">Gnome Symbolic Icon Theme</title><g id="layer12" display="inline" transform="translate(-241.00018,-243)"><rect stroke-width="1" style="marker:none" id="rect5985-4-9-7" width="300" height="300" x="241" y="243" fill="none" stroke="none" color="#000" display="inline" enable-background="new" overflow="visible" visibility="visible"/><rect id="rect5985-4-4-6-8" width="260" height="260" x="261" y="263" fill="#babdb6" fill-opacity="1" fill-rule="nonzero" stroke="none" stroke-width="1" color="#000" display="inline" enable-background="new" overflow="visible" rx="4" ry="4" visibility="visible" style="marker:none"/><path id="rect3883-1-8-5-1-8-6-1" fill="#babdb6" fill-opacity="1" fill-rule="nonzero" stroke="#eeeeec" stroke-dasharray="none" stroke-miterlimit="4" stroke-width="2" d="m 388.0002,247.00002 0,68.7812 6,4 0,-68.7812 z" color="#000" display="inline" enable-background="new" overflow="visible" visibility="visible" style="marker:none"/><path id="path4121-7" fill="#eeeeec" fill-opacity="1" fill-rule="nonzero" stroke="#eeeeec" stroke-dasharray="none" stroke-dashoffset="0" stroke-linecap="round" stroke-linejoin="round" stroke-miterlimit="4" stroke-opacity="1" stroke-width="4" d="m 391.0002,291.00002 c -55.54856,0 -74.96875,74.6354 -74.96875,125.5 0,52.9858 46.99736,71.5 74.96875,71.5 27.97139,0 74.96875,-18.5142 74.96875,-71.5 0,-50.8646 -19.42019,-125.5 -74.96875,-125.5 z" color="#000" display="inline" enable-background="new" overflow="visible" visibility="visible" style="marker:none"/><path d="m 388.0002,247.00002 0,68.7812 6,4 0,-68.7812 z" style="marker:none" id="rect3883-1-8-5-1-3-5" fill="#babdb6" fill-opacity="1" fill-rule="nonzero" stroke="none" stroke-width="1" color="#000" display="inline" enable-background="new" overflow="visible" visibility="visible"/><path id="path4121" fill="#eeeeec" fill-opacity="1" fill-rule="nonzero" stroke="#babdb6" stroke-dashoffset="0" stroke-linecap="round" stroke-linejoin="round" stroke-miterlimit="4" stroke-opacity="1" stroke-width="2" d="m 391.0002,291.00002 c -55.54856,0 -74.96875,74.6354 -74.96875,125.5 0,52.9858 46.99736,71.5 74.96875,71.5 27.97139,0 74.96875,-18.5142 74.96875,-71.5 0,-50.8646 -19.42019,-125.5 -74.96875,-125.5 z" color="#000" display="inline" enable-background="new" overflow="visible" visibility="visible" style="marker:none"/><g id="g4210" transform="matrix(0.70710678,0.70710678,-0.70710678,0.70710678,965.1549,-761.65134)"><rect id="rect4132" width="2" height="4" x="442" y="1267.362" fill="#babdb6" fill-opacity="1" fill-rule="nonzero" stroke="none" stroke-width="2" color="#000" display="inline" enable-background="new" overflow="visible" rx="0" ry="0" visibility="visible" style="marker:none"/><rect id="rect4132-9" width="2" height="4" x="1272.362" y="-441" fill="#babdb6" fill-opacity="1" fill-rule="nonzero" stroke="none" stroke-width="2" color="#000" display="inline" enable-background="new" overflow="visible" rx="0" ry="0" transform="matrix(0,1,-1,0,0,0)" visibility="visible" style="marker:none"/><rect id="rect4132-4" width="2" height="4" x="442" y="1275.362" fill="#babdb6" fill-opacity="1" fill-rule="nonzero" stroke="none" stroke-width="2" color="#000" display="inline" enable-background="new" overflow="visible" rx="0" ry="0" visibility="visible" style="marker:none"/><rect id="rect4132-9-8" width="2" height="4" x="1272.362" y="-449" fill="#babdb6" fill-opacity="1" fill-rule="nonzero" stroke="none" stroke-width="2" color="#000" display="inline" enable-background="new" overflow="visible" rx="0" ry="0" transform="matrix(0,1,-1,0,0,0)" visibility="visible" style="marker:none"/></g><text id="text4188" x="387.303" y="454.996" fill="#babdb6" fill-opacity="1" stroke="none" font-family="Cantarell" font-size="12.262" font-stretch="normal" font-style="normal" font-variant="normal" font-weight="bold" letter-spacing="0" transform="scale(0.99909433,1.0009065)" word-spacing="0" xml:space="preserve" style="line-height:125%;-inkscape-font-specification:Cantarell Bold"><tspan style="-inkscape-font-specification:Cantarell" id="tspan4190" x="387.303" y="454.996" fill="#babdb6" font-weight="normal">x-lite</tspan></text><path d="m 388.0002,243.00002 0,1.7812 6,4 0,-1.7812 z" style="marker:none" id="rect3883-1-8-5-0-5-0" fill="#babdb6" fill-opacity="1" fill-rule="nonzero" stroke="none" stroke-width="1" color="#000" display="inline" enable-background="new" overflow="visible" visibility="visible"/><text id="text4188-7" x="346.53" y="372.95" fill="#babdb6" fill-opacity="1" stroke="none" display="inline" font-family="Cantarell" font-size="18.215" font-stretch="normal" font-style="normal" font-variant="normal" font-weight="bold" letter-spacing="0" transform="scale(0.99625014,1.003764)" word-spacing="0" xml:space="preserve" style="line-height:125%;-inkscape-font-specification:Cantarell Bold"><tspan style="-inkscape-font-specification:Cantarell" id="tspan4190-7" x="346.53" y="372.95" fill="#babdb6" font-weight="normal">color<tspan id="tspan3116" font-weight="bold">hunki</tspan></tspan></text><text id="text4188-7-9" x="372.733" y="377.341" fill="#babdb6" fill-opacity="1" stroke="none" display="inline" font-family="Cantarell" font-size="39.264" font-stretch="normal" font-style="normal" font-variant="normal" font-weight="bold" letter-spacing="0" transform="scale(0.92141184,1.085291)" word-spacing="0" xml:space="preserve" style="line-height:125%;-inkscape-font-specification:Cantarell Bold"><tspan style="-inkscape-font-specification:Cantarell" id="tspan4190-7-1" x="372.733" y="377.341" fill="#babdb6" font-weight="normal">Smirk</tspan></text></g></svg>