<svg xmlns="http://www.w3.org/2000/svg" xmlns:svg="http://www.w3.org/2000/svg" id="svg7384" width="300" height="300.323" version="1.1"><metadata id="metadata90"/><title id="title9167">Gnome Symbolic Icon Theme</title><g id="layer12" display="inline" transform="translate(-551.00018,-243)"><rect stroke-width="1" style="marker:none" id="rect5985-6" width="300" height="300" x="551" y="243" fill="none" stroke="none" color="#000" display="inline" enable-background="new" overflow="visible" visibility="visible"/><rect id="rect5985-4-4-6-9" width="200" height="200" x="601" y="243" fill="#babdb6" fill-opacity="1" fill-rule="nonzero" stroke="none" stroke-width="1" color="#000" display="inline" enable-background="new" overflow="visible" rx="4" ry="4" visibility="visible" style="marker:none"/><rect id="rect2851" width="153.131" height="210.555" x="624.435" y="287.884" fill="#eeeeec" fill-opacity="1" stroke="#babdb6" stroke-dasharray="none" stroke-dashoffset="0" stroke-linejoin="round" stroke-miterlimit="4" stroke-opacity="1" stroke-width="2" ry="12.761"/><path id="path2855" fill="#babdb6" fill-opacity="1" stroke="#babdb6" stroke-dasharray="none" stroke-dashoffset="0" stroke-linejoin="round" stroke-miterlimit="4" stroke-opacity="1" stroke-width=".875" d="m -320,468.79074 a 35,35 0 1 1 -70,0 35,35 0 1 1 70,0 z" transform="matrix(0.36459709,0,0,0.36459709,811.29076,168.00775)"/><path id="path2855-7" fill="#babdb6" fill-opacity="1" stroke="#babdb6" stroke-dasharray="none" stroke-dashoffset="0" stroke-linejoin="round" stroke-miterlimit="4" stroke-opacity="1" stroke-width="1.75" d="m -320,468.79074 a 35,35 0 1 1 -70,0 35,35 0 1 1 70,0 z" transform="matrix(0.18229861,0,0,0.18229861,810.3793,266.22848)"/><path id="path2855-7-2" fill="#babdb6" fill-opacity="1" stroke="#babdb6" stroke-dasharray="none" stroke-dashoffset="0" stroke-linejoin="round" stroke-miterlimit="4" stroke-opacity="1" stroke-width="1.75" d="m -320,468.79074 a 35,35 0 1 1 -70,0 35,35 0 1 1 70,0 z" transform="matrix(0.18229861,0,0,0.18229861,714.67255,291.75028)"/><rect id="rect2914" width="12.761" height="12.761" x="675.478" y="332.547" fill="#eeeeec" fill-opacity="1" stroke="#eeeeec" stroke-dasharray="none" stroke-dashoffset="0" stroke-linejoin="round" stroke-miterlimit="4" stroke-opacity="1" stroke-width=".213" ry="2.127"/><path id="path2855-5" fill="#babdb6" fill-opacity="1" stroke="#babdb6" stroke-dasharray="none" stroke-dashoffset="0" stroke-linejoin="round" stroke-miterlimit="4" stroke-opacity="1" stroke-width=".875" d="m -320,468.79074 a 35,35 0 1 1 -70,0 35,35 0 1 1 70,0 z" transform="matrix(0.36459709,0,0,0.36459709,849.57345,168.00775)"/><rect id="rect2914-0" width="12.761" height="12.761" x="713.761" y="332.547" fill="#eeeeec" fill-opacity="1" stroke="#eeeeec" stroke-dasharray="none" stroke-dashoffset="0" stroke-linejoin="round" stroke-miterlimit="4" stroke-opacity="1" stroke-width=".213" ry="2.127"/></g></svg>