<svg xmlns="http://www.w3.org/2000/svg" xmlns:svg="http://www.w3.org/2000/svg" id="svg7384" width="300" height="300" version="1.1"><metadata id="metadata90"/><title id="title9167">Gnome Symbolic Icon Theme</title><g id="layer12" display="inline" transform="translate(-241.00018,-243)"><rect stroke-width="1" style="marker:none" id="rect5985-4-9-7" width="300" height="300" x="241" y="243" fill="none" stroke="none" color="#000" display="inline" enable-background="new" overflow="visible" visibility="visible"/><rect id="rect5985-4-4-6-8" width="260" height="260" x="261" y="263" fill="#babdb6" fill-opacity="1" fill-rule="nonzero" stroke="none" stroke-width="1" color="#000" display="inline" enable-background="new" overflow="visible" rx="4" ry="4" visibility="visible" style="marker:none"/><path id="rect3883-1-8-5-1-8-6-1" fill="#babdb6" fill-opacity="1" fill-rule="nonzero" stroke="#eeeeec" stroke-dasharray="none" stroke-miterlimit="4" stroke-width="2" d="m 388.00018,246.9998 0,68.7812 6,4 0,-68.7812 z" color="#000" display="inline" enable-background="new" overflow="visible" visibility="visible" style="marker:none"/><path d="m 388.00018,246.9998 0,68.7812 6,4 0,-68.7812 z" style="marker:none" id="rect3883-1-8-5-1-3-5" fill="#babdb6" fill-opacity="1" fill-rule="nonzero" stroke="none" stroke-width="1" color="#000" display="inline" enable-background="new" overflow="visible" visibility="visible"/><path d="m 388.00018,242.9998 0,1.7812 6,4 0,-1.7812 z" style="marker:none" id="rect3883-1-8-5-0-5-0" fill="#babdb6" fill-opacity="1" fill-rule="nonzero" stroke="none" stroke-width="1" color="#000" display="inline" enable-background="new" overflow="visible" visibility="visible"/><path id="path3802" fill="#babdb6" fill-opacity="1" stroke="#eeeeec" stroke-dasharray="none" stroke-miterlimit="4" stroke-opacity="1" stroke-width="2" d="M 114.34375 51.1875 C 113.74178 51.171324 113.15619 51.397488 112.6875 51.75 C 108.71358 51.300429 104.41084 53.903691 103.03125 58.9375 C 94.50069 77.47688 92.61706 98.22398 90.75 118.3125 C 88.49959 153.28323 89.11027 188.83915 96.8125 223.15625 C 99.46868 231.99359 101.23965 242.70457 109.3125 248.3125 C 110.69161 248.65253 111.94352 248.63251 113.0625 248.34375 C 113.41044 248.56151 113.83577 248.70402 114.34375 248.8125 L 178.71875 248.8125 C 181.07005 248.43114 184.55277 249.44877 186.6875 248.40625 C 194.72866 249.92975 197.86671 239.14202 200.28125 233.25 C 208.66807 206.3919 210.10039 177.95737 210.40625 150 C 210.40337 138.28393 209.95172 126.55074 208.96875 114.875 C 206.97022 95.60903 205.0924 75.65153 196.46875 58.03125 C 194.8899 53.020936 190.91611 51.151018 187.1875 51.84375 C 186.79636 51.539481 186.2939 51.323672 185.65625 51.1875 L 114.34375 51.1875 z" color="#000" display="inline" enable-background="accumulate" overflow="visible" transform="translate(241.00018,243)" visibility="visible" style="marker:none"/><path id="path3806" fill="#eeeeec" fill-opacity="1" fill-rule="nonzero" stroke="none" stroke-width=".01" d="m 1160,712.36218 a 120,200 0 1 1 -240,0 120,200 0 1 1 240,0 z" color="#000" display="inline" enable-background="accumulate" overflow="visible" transform="matrix(0.41176469,0,0,0.24705876,-37.235098,217.00468)" visibility="visible" style="marker:none"/></g></svg>