<svg xmlns="http://www.w3.org/2000/svg" xmlns:svg="http://www.w3.org/2000/svg" id="svg7384" width="300" height="300" version="1.1"><metadata id="metadata90"/><title id="title9167">Gnome Symbolic Icon Theme</title><g id="layer12" display="inline" transform="translate(-241.00018,67)"><rect stroke-width="1" style="marker:none" id="rect5985-4" width="300" height="300" x="241" y="-67" fill="none" stroke="none" color="#000" display="inline" enable-background="new" overflow="visible" visibility="visible"/><rect id="rect5985-4-4" width="260" height="260" x="261" y="-47" fill="#babdb6" fill-opacity="1" fill-rule="nonzero" stroke="none" stroke-width="1" color="#000" display="inline" enable-background="new" overflow="visible" rx="4" ry="4" visibility="visible" style="marker:none"/><path id="rect3883-1-8-5-1-8" fill="#babdb6" fill-opacity="1" fill-rule="nonzero" stroke="#eeeeec" stroke-dasharray="none" stroke-miterlimit="4" stroke-width="2" d="m 394.0002,232.00002 0,-48.78125 -6,-4 0,48.78125 z" color="#000" display="inline" enable-background="new" overflow="visible" visibility="visible" style="marker:none"/><path id="rect6252-7" fill="#eeeeec" fill-opacity="1" fill-rule="nonzero" stroke="#eeeeec" stroke-dasharray="none" stroke-miterlimit="4" stroke-width="4" d="m 391.0002,191.00002 c 25.54902,0 18,-5 70,-5 14.73469,0 32,-31.44616 32,-35 0,-15.73588 -31.46893,0.28327 -57,-95 C 416.3141,-17.4695 436.82399,-33 391.0002,-33 c -45.82379,0 -25.3139,15.5305 -45,89.00002 -25.53107,95.28327 -57,79.26412 -57,95 0,3.55384 17.26531,35 32,35 52,0 44.45098,5 70,5 z" color="#000" display="inline" enable-background="new" overflow="visible" visibility="visible" style="marker:none"/><path d="m 394.0002,232.00002 0,-48.78125 -6,-4 0,48.78125 z" style="marker:none" id="rect3883-1-8-5-1" fill="#babdb6" fill-opacity="1" fill-rule="nonzero" stroke="none" stroke-width="1" color="#000" display="inline" enable-background="new" overflow="visible" visibility="visible"/><path id="rect6252" fill="#eeeeec" fill-opacity="1" fill-rule="nonzero" stroke="#babdb6" stroke-dasharray="none" stroke-miterlimit="4" stroke-width="2" d="m 391.0002,191.00002 c 25.54902,0 18,-5 70,-5 14.73469,0 32,-31.44616 32,-35 0,-15.73588 -31.46893,0.28327 -57,-95 -19.6861,-73.46952 0.82379,-89 -45,-89 -45.82379,0 -25.3139,15.53048 -45,89 -25.53107,95.28327 -57,79.26412 -57,95 0,3.55384 17.26531,35 32,35 52,0 44.45098,5 70,5 z" color="#000" display="inline" enable-background="new" overflow="visible" visibility="visible" style="marker:none"/><path d="m 344.00019,110.50003 c 0,-41.14521 21.04262,-74.5 47.00001,-74.5 25.95738,0 47.00001,33.35479 47.00001,74.5 0,41.14521 -13.5128,74.5 -47.00001,74.5 -33.48721,0 -47.00001,-33.35479 -47.00001,-74.5 z" style="marker:none" id="path6226" fill="#babdb6" fill-opacity="1" fill-rule="nonzero" stroke="none" stroke-width="1" color="#000" display="inline" enable-background="new" overflow="visible" visibility="visible"/><path id="path6276" fill="#eeeeec" fill-opacity="1" fill-rule="nonzero" stroke="none" stroke-width="1" d="m 155.1875,171.71875 a 6.46875,6.46875 0 1 1 -12.9375,0 6.46875,6.46875 0 1 1 12.9375,0 z" color="#000" display="inline" enable-background="new" overflow="visible" transform="matrix(-1,0,0,-1,539.71897,236.25004)" visibility="visible" style="marker:none"/><path d="m 394.0002,236.00002 0,-1.78125 -6,-4 0,1.78125 z" style="marker:none" id="rect3883-1-8-5-0" fill="#babdb6" fill-opacity="1" fill-rule="nonzero" stroke="none" stroke-width="1" color="#000" display="inline" enable-background="new" overflow="visible" visibility="visible"/><path d="m 392.12522,59.06252 c 2.52051,0.51577 4.40625,2.73327 4.40625,5.40625 0,3.05484 -2.47641,5.53125 -5.53125,5.53125 -3.05484,0 -5.53125,-2.47641 -5.53125,-5.53125 0,-2.67298 1.88574,-4.89048 4.40625,-5.40625 -2.2308,0.51557 -3.90625,2.51876 -3.90625,4.90625 0,2.77869 2.25256,5.03125 5.03125,5.03125 2.77869,0 5.03125,-2.25256 5.03125,-5.03125 0,-2.38749 -1.67545,-4.39068 -3.90625,-4.90625 z" style="marker:none" id="path6276-8" fill="#babdb6" fill-opacity="1" fill-rule="nonzero" stroke="none" stroke-width="1" color="#000" display="inline" enable-background="new" overflow="visible" visibility="visible"/><text id="text4078" x="-105.112" y="422.174" fill="#eeeeec" fill-opacity="1" stroke="none" font-family="Cantarell" font-size="8.848" font-stretch="normal" font-style="normal" font-variant="normal" font-weight="bold" letter-spacing="0" text-anchor="end" transform="matrix(0,-0.99661855,1.0033929,0,0,0)" word-spacing="0" xml:space="preserve" style="text-align:end;line-height:125%;-inkscape-font-specification:Cantarell Bold"><tspan id="tspan4080" x="-105.112" y="422.174"><tspan style="text-align:end;-inkscape-font-specification:Cantarell Bold" id="tspan4082" fill="#eeeeec" font-size="8.848" font-weight="bold" text-anchor="end"><tspan style="-inkscape-font-specification:Cantarell" id="tspan4084" font-weight="bold">Hugh</tspan>Syer4</tspan></tspan></text><text id="text4086" x="-155.898" y="358.952" fill="#eeeeec" fill-opacity="1" stroke="none" font-family="Cantarell" font-size="3.345" font-stretch="normal" font-style="normal" font-variant="normal" font-weight="bold" letter-spacing="0" transform="matrix(0,-0.83613746,1.1959756,0,0,0)" word-spacing="0" xml:space="preserve" style="line-height:125%;-inkscape-font-specification:Cantarell Bold"><tspan id="tspan4088" x="-155.898" y="358.952">MINI ESPRESSO</tspan></text><path id="path6276-7" fill="#eeeeec" fill-opacity="1" fill-rule="nonzero" stroke="none" stroke-width="1" d="m 155.1875,171.71875 a 6.46875,6.46875 0 1 1 -12.9375,0 6.46875,6.46875 0 1 1 12.9375,0 z" color="#000" display="inline" enable-background="new" overflow="visible" transform="matrix(-1.2012195,0,0,-1.9365728,569.64409,416.24115)" visibility="visible" style="marker:none"/><path d="m 392.35159,72.397508 c 3.02769,1.057179 5.29288,5.60241 5.29288,11.081246 0,6.261534 -2.97472,11.337457 -6.64425,11.337457 -3.66953,0 -6.64425,-5.075923 -6.64425,-11.337457 0,-5.478836 2.26519,-10.024067 5.29288,-11.081246 -2.67968,1.05677 -4.69227,5.162727 -4.69227,10.05639 0,5.695508 2.70582,11.297676 6.04364,11.297676 3.33782,0 6.04364,-5.602168 6.04364,-11.297676 0,-4.893663 -2.01259,-8.99962 -4.69227,-10.05639 z" style="marker:none" id="path6276-8-8" fill="#babdb6" fill-opacity="1" fill-rule="nonzero" stroke="none" stroke-width="1" color="#000" display="inline" enable-background="new" overflow="visible" visibility="visible"/><path id="path6276-5" fill="#eeeeec" fill-opacity="1" fill-rule="nonzero" stroke="none" stroke-width="1" d="m 155.1875,171.71875 a 6.46875,6.46875 0 1 1 -12.9375,0 6.46875,6.46875 0 1 1 12.9375,0 z" color="#000" display="inline" enable-background="new" overflow="visible" transform="matrix(-0.15230404,0,0,-0.18356992,413.65069,102.76403)" visibility="visible" style="marker:none"/></g></svg>