<svg xmlns="http://www.w3.org/2000/svg" xmlns:svg="http://www.w3.org/2000/svg" id="svg7384" width="300" height="300" version="1.1"><metadata id="metadata90"/><title id="title9167">Gnome Symbolic Icon Theme</title><g id="layer12" display="inline" transform="translate(-241.00018,67)"><rect stroke-width="1" style="marker:none" id="rect5985-4" width="300" height="300" x="241" y="-67" fill="none" stroke="none" color="#000" display="inline" enable-background="new" overflow="visible" visibility="visible"/><rect id="rect5985-4-4" width="260" height="260" x="261" y="-47" fill="#babdb6" fill-opacity="1" fill-rule="nonzero" stroke="none" stroke-width="1" color="#000" display="inline" enable-background="new" overflow="visible" rx="4" ry="4" visibility="visible" style="marker:none"/><path id="rect3883-1-8-5-1-8" fill="#babdb6" fill-opacity="1" fill-rule="nonzero" stroke="#eeeeec" stroke-dasharray="none" stroke-miterlimit="4" stroke-width="2" d="m 394.0002,-56.649767 0,48.78125 -6,3.9999999 0,-48.7812499 z" color="#000" display="inline" enable-background="new" overflow="visible" visibility="visible" style="marker:none"/><path id="rect3883-1-8-5-1" fill="#babdb6" fill-opacity="1" fill-rule="nonzero" stroke="none" stroke-width="1" d="m 394.0002,-56.649767 0,48.78125 -6,3.9999999 0,-48.7812499 z" color="#000" display="inline" enable-background="new" overflow="visible" visibility="visible" style="marker:none"/><path id="rect3883-1-8-5-0" fill="#babdb6" fill-opacity="1" fill-rule="nonzero" stroke="none" stroke-width="1" d="m 394.0002,-60.649767 0,1.78125 -6,4 0,-1.78125 z" color="#000" display="inline" enable-background="new" overflow="visible" visibility="visible" style="marker:none"/><path id="path4274" fill="#fff" fill-opacity="1" fill-rule="evenodd" stroke="#fff" stroke-linecap="round" stroke-linejoin="round" stroke-opacity="1" stroke-width="1" d="m 334.48502,-17.817865 c -29.69759,18.2821881 -50.73313,53.004609 -52.5,92.5 28.35906,28.631135 48.23283,61.858465 57.5,96.500005 36.93443,17.86456 72.45465,17.34434 105.5,-0.5 12.97616,-37.56179 31.20681,-69.33854 55.03033,-98.616122 -3.54475,-39.909604 -20.52453,-70.0964911 -52.53033,-90.383883 -36.95956,9.7126083 -75.33333,9.1721682 -113,0.5 z"/><path id="path4276" fill="#afb3aa" fill-opacity="1" stroke="none" stroke-dasharray="none" stroke-dashoffset="0" stroke-linecap="round" stroke-linejoin="round" stroke-miterlimit="4" stroke-opacity="1" stroke-width="1" d="M 325.22775,110.16851 A 74.368927,74.368927 0 0 1 360.73309,11.182211 74.368927,74.368927 0 0 1 459.7276,46.664659 74.368927,74.368927 0 0 1 424.26804,145.66737 74.368927,74.368927 0 0 1 325.25713,110.23071" opacity="1"/><path id="path4293" fill="#babdb6" fill-opacity="1" stroke="none" stroke-dasharray="none" stroke-dashoffset="0" stroke-linecap="round" stroke-linejoin="round" stroke-miterlimit="4" stroke-opacity="1" stroke-width=".962" d="m 327.80069,108.95443 a 71.523933,71.523933 0 0 1 34.14707,-95.199563 71.523933,71.523933 0 0 1 95.20746,34.125061 71.523933,71.523933 0 0 1 -34.10304,95.215352 71.523933,71.523933 0 0 1 -95.22323,-34.08103" opacity="1"/><path id="path4304" fill="#fff" fill-opacity="1" stroke="none" stroke-dasharray="none" stroke-dashoffset="0" stroke-linecap="round" stroke-linejoin="round" stroke-miterlimit="4" stroke-opacity="1" stroke-width=".962" d="m 380.57061,84.054134 a 13.174217,13.174217 0 0 1 6.28965,-17.535106 13.174217,13.174217 0 0 1 17.53656,6.285602 13.174217,13.174217 0 0 1 -6.28154,17.538013 13.174217,13.174217 0 0 1 -17.53947,-6.277491" opacity="1"/><text font-stretch="normal" style="line-height:125%;-inkscape-font-specification:'Cantarell Bold';text-align:center" id="text4078-2" x="373.618" y="56.288" fill="#eeeeec" fill-opacity="1" stroke="none" display="inline" font-family="Cantarell" font-size="16.801" font-style="normal" font-variant="normal" font-weight="bold" letter-spacing="0" text-anchor="middle" transform="scale(1.0503841,0.95203268)" word-spacing="0" xml:space="preserve"><tspan id="tspan4080-2" x="373.618" y="56.288">HughSyer5</tspan></text><text font-stretch="normal" style="line-height:125%;-inkscape-font-specification:'Cantarell Bold'" id="text4086-1" x="426.804" y="98.234" fill="#eeeeec" fill-opacity="1" stroke="none" display="inline" font-family="Cantarell" font-size="6.447" font-style="normal" font-variant="normal" font-weight="bold" letter-spacing="0" transform="scale(0.83613746,1.1959756)" word-spacing="0" xml:space="preserve"><tspan id="tspan4088-9" x="426.804" y="98.234">MINI ESPRESSO</tspan></text><path id="path4342" fill="none" fill-opacity="1" fill-rule="evenodd" stroke="#babdb6" stroke-dasharray="none" stroke-linecap="butt" stroke-linejoin="miter" stroke-miterlimit="4" stroke-opacity="1" stroke-width="1.954" d="m 334.90819,-15.319519 c -29.01198,17.860115 -49.06187,50.780915 -50.78796,89.364493 25.70435,24.720136 48.3693,63.180366 56.92253,95.772146 36.08174,17.45213 70.03192,16.94392 102.31436,-0.48845 12.67659,-36.69462 31.11136,-69.23775 54.38488,-97.839416 -3.46292,-38.988228 -19.55069,-67.7282042 -50.81759,-87.54723 -39.35629,9.4883776 -71.96915,9.2104144 -112.01622,0.738457 z"/><path id="path4368" fill="#dbdcd9" fill-opacity="1" stroke="none" stroke-dasharray="none" stroke-dashoffset="0" stroke-linecap="round" stroke-linejoin="round" stroke-miterlimit="4" stroke-opacity="1" stroke-width=".962" d="m 382.16933,83.299753 a 11.40645,11.40645 0 0 1 5.44568,-15.182179 11.40645,11.40645 0 0 1 15.18344,5.442176 11.40645,11.40645 0 0 1 -5.43866,15.184695 11.40645,11.40645 0 0 1 -15.18596,-5.435153" opacity="1"/></g></svg>