<svg xmlns="http://www.w3.org/2000/svg" xmlns:svg="http://www.w3.org/2000/svg" id="svg2" width="744.094" height="1052.362" version="1.1"><defs id="defs4"><marker id="Arrow2Lend" orient="auto" overflow="visible" refX="0" refY="0"><path id="path3930" fill-rule="evenodd" stroke-linejoin="round" stroke-width=".625" d="M 8.7185878,4.0337352 L -2.2072895,0.016013256 L 8.7185884,-4.0017078 C 6.9730900,-1.6296469 6.9831476,1.6157441 8.7185878,4.0337352 z" font-size="12" transform="scale(1.1) rotate(180) translate(1,0)"/></marker><marker id="Arrow2Lend-2" orient="auto" overflow="visible" refX="0" refY="0"><path id="path3930-8" fill-rule="evenodd" stroke-linejoin="round" stroke-width=".625" d="M 8.7185878,4.0337352 -2.2072895,0.01601326 8.7185884,-4.0017078 c -1.7454984,2.3720609 -1.7354408,5.6174519 -6e-7,8.035443 z" font-size="12" transform="matrix(-1.1,0,0,-1.1,-1.1,0)"/></marker></defs><metadata id="metadata7"/><g id="layer1"><rect id="rect3975-8" width="30" height="10" x="230" y="522.362" fill="#000" fill-opacity="1" fill-rule="nonzero" stroke="none" stroke-width="2.5" color="#000" display="inline" enable-background="accumulate" overflow="visible" ry="0" visibility="visible" style="marker:none"/><rect id="rect3975-3" width="30" height="10" x="230" y="562.362" fill="#000" fill-opacity="1" fill-rule="nonzero" stroke="none" stroke-width="2.5" color="#000" display="inline" enable-background="accumulate" overflow="visible" ry="0" visibility="visible" style="marker:none"/><rect id="rect3975-31" width="30" height="10" x="540" y="482.362" fill="#000" fill-opacity="1" fill-rule="nonzero" stroke="none" stroke-width="2.5" color="#000" display="inline" enable-background="accumulate" overflow="visible" ry="0" visibility="visible" style="marker:none"/><rect id="rect3975-5" width="30" height="10" x="540" y="522.362" fill="#000" fill-opacity="1" fill-rule="nonzero" stroke="none" stroke-width="2.5" color="#000" display="inline" enable-background="accumulate" overflow="visible" ry="0" visibility="visible" style="marker:none"/><rect id="rect3975" width="30" height="10" x="230" y="482.362" fill="#000" fill-opacity="1" fill-rule="nonzero" stroke="none" stroke-width="2.5" color="#000" display="inline" enable-background="accumulate" overflow="visible" ry="0" visibility="visible" style="marker:none"/><rect id="rect3975-5-7" width="30" height="10" x="390" y="482.362" fill="#000" fill-opacity="1" fill-rule="nonzero" stroke="none" stroke-width="2.5" color="#000" display="inline" enable-background="accumulate" overflow="visible" ry="0" visibility="visible" style="marker:none"/><rect id="rect2987" width="690" height="230" x="30" y="372.362" fill="none" stroke="#000" stroke-dasharray="none" stroke-dashoffset="0" stroke-linecap="round" stroke-linejoin="round" stroke-miterlimit="4" stroke-opacity="1" stroke-width="4.371" ry="12.778"/><text id="text3757" x="60" y="622.362" fill="#000" fill-opacity="1" stroke="none" font-family="Bitstream Vera Sans" font-size="20" font-style="normal" font-weight="normal" letter-spacing="0" word-spacing="0" xml:space="preserve" style="line-height:125%"><tspan style="text-align:center" id="tspan3759" x="60" y="622.362" text-anchor="middle">CUPS</tspan></text><rect id="rect3172" width="150" height="30" x="560" y="472.362" fill="#ececec" fill-opacity="1" stroke="#000" stroke-dasharray="none" stroke-dashoffset="0" stroke-linecap="round" stroke-linejoin="round" stroke-miterlimit="4" stroke-opacity="1" stroke-width=".93" ry="0"/><rect id="rect3058" width="150" height="30" x="560" y="512.362" fill="#ececec" fill-opacity="1" stroke="#000" stroke-dasharray="none" stroke-dashoffset="0" stroke-linecap="round" stroke-linejoin="round" stroke-miterlimit="4" stroke-opacity="1" stroke-width=".93" ry="0"/><path id="rect3975-33" fill="#ffe9d9" fill-opacity="1" fill-rule="nonzero" stroke="#000" stroke-dasharray="none" stroke-dashoffset="0" stroke-linecap="round" stroke-linejoin="round" stroke-miterlimit="4" stroke-opacity="1" stroke-width="1.5" d="m 65,392.375 c -5.54,0 -10,4.46 -10,10 l 0,30 c 0,5.54 4.46,10 10,10 l 45,0 0,30 -54,0 c -3.324,0 -6,2.676 -6,6 l 0,18 c 0,3.324 2.676,6 6,6 l 54,0 0,10 -54,0 c -3.324,0 -6,2.676 -6,6 l 0,18 c 0,3.324 2.676,6 6,6 l 54,0 0,10 -54,0 c -3.324,0 -6,2.676 -6,6 l 0,18 c 0,3.324 2.676,6 6,6 l 178,0 c 3.324,0 6,-2.676 6,-6 l 0,-18 c 0,-3.324 -2.676,-6 -6,-6 l -114,0 0,-10 114,0 c 3.324,0 6,-2.676 6,-6 l 0,-18 c 0,-3.324 -2.676,-6 -6,-6 l -114,0 0,-10 114,0 c 3.324,0 6,-2.676 6,-6 l 0,-18 c 0,-3.324 -2.676,-6 -6,-6 l -114,0 0,-30 30,0 c 5.54,0 10,-4.46 10,-10 l 0,-30 c 0,-5.54 -4.46,-10 -10,-10 l -85,0 z" color="#000" display="inline" enable-background="accumulate" overflow="visible" visibility="visible" style="marker:none"/><text id="text3062" x="110" y="422.362" fill="#000" fill-opacity="1" stroke="none" font-family="Bitstream Vera Sans" font-size="20" font-style="normal" font-weight="normal" letter-spacing="0" word-spacing="0" xml:space="preserve" style="line-height:125%"><tspan style="text-align:center" id="tspan3064" x="110" y="422.362" text-anchor="middle">printers</tspan></text><rect id="rect3975-5-0" width="30" height="10" x="390" y="522.362" fill="#000" fill-opacity="1" fill-rule="nonzero" stroke="none" stroke-width="2.5" color="#000" display="inline" enable-background="accumulate" overflow="visible" ry="0" visibility="visible" style="marker:none"/><path id="rect3066" fill="#ffe9d9" fill-opacity="1" stroke="#000" stroke-dasharray="none" stroke-dashoffset="0" stroke-linecap="round" stroke-linejoin="round" stroke-miterlimit="4" stroke-opacity="1" stroke-width="1.5" d="m 435,402.375 c -5.54,0 -10,4.46 -10,10 l 0,30 c 0,5.54 4.46,10 10,10 l 35,0 0,20 -54,0 c -3.324,0 -6,2.676 -6,6 l 0,18 c 0,3.324 2.676,6 6,6 l 54,0 0,10 -54,0 c -3.324,0 -6,2.676 -6,6 l 0,18 c 0,3.324 2.676,6 6,6 l 128,0 c 3.324,0 6,-2.676 6,-6 l 0,-18 c 0,-3.324 -2.676,-6 -6,-6 l -64,0 0,-10 64,0 c 3.324,0 6,-2.676 6,-6 l 0,-18 c 0,-3.324 -2.676,-6 -6,-6 l -64,0 0,-20 40,0 c 5.54,0 10,-4.46 10,-10 l 0,-30 c 0,-5.54 -4.46,-10 -10,-10 l -85,0 z"/><text id="text3068" x="480" y="432.362" fill="#000" fill-opacity="1" stroke="none" font-family="Bitstream Vera Sans" font-size="20" font-style="normal" font-weight="normal" letter-spacing="0" word-spacing="0" xml:space="preserve" style="line-height:125%"><tspan id="tspan3070" x="480" y="432.362" text-anchor="middle" style="text-align:center">ipp</tspan></text><text id="text3936" x="480" y="492.362" fill="#000" fill-opacity="1" stroke="none" font-family="Bitstream Vera Sans" font-size="20" font-style="normal" font-weight="normal" letter-spacing="0" word-spacing="0" xml:space="preserve" style="line-height:125%"><tspan id="tspan3938" x="480" y="492.362" font-size="16" text-anchor="middle" style="text-align:center">add_printer</tspan></text><text id="text3099" x="570" y="528.362" fill="#000" fill-opacity="1" stroke="none" font-family="Bitstream Vera Sans" font-size="20" font-style="normal" font-weight="normal" letter-spacing="0" word-spacing="0" xml:space="preserve" style="line-height:125%"><tspan style="text-align:start" id="tspan3101" x="570" y="528.362" font-size="10" text-anchor="start">apple_unregister_profiles</tspan></text><text id="text3103" x="570" y="494.362" fill="#000" fill-opacity="1" stroke="none" font-family="Bitstream Vera Sans" font-size="20" font-style="normal" font-weight="normal" letter-spacing="0" word-spacing="0" xml:space="preserve" style="line-height:125%"><tspan id="tspan3105" x="570" y="494.362" font-size="10" text-anchor="start" style="text-align:start">apple_register_profiles</tspan></text><text id="text3109" x="480" y="532.362" fill="#000" fill-opacity="1" stroke="none" font-family="Bitstream Vera Sans" font-size="20" font-style="normal" font-weight="normal" letter-spacing="0" word-spacing="0" xml:space="preserve" style="line-height:125%"><tspan style="text-align:center" id="tspan3111" x="480" y="532.362" font-size="16" text-anchor="middle">remove_printer</tspan></text><text id="text3099-9" x="570" y="484.362" fill="#000" fill-opacity="1" stroke="none" font-family="Bitstream Vera Sans" font-size="20" font-style="normal" font-weight="normal" letter-spacing="0" word-spacing="0" xml:space="preserve" style="line-height:125%"><tspan style="text-align:start" id="tspan3101-9" x="570" y="484.362" font-size="10" text-anchor="start">apple_unregister_profiles</tspan></text><rect id="rect3954" width="150" height="30" x="250" y="552.362" fill="#f99" fill-opacity="1" fill-rule="nonzero" stroke="#000" stroke-dasharray="none" stroke-dashoffset="0" stroke-linecap="round" stroke-linejoin="round" stroke-miterlimit="4" stroke-opacity="1" stroke-width="2.5" color="#000" display="inline" enable-background="accumulate" overflow="visible" ry="0" visibility="visible" style="marker:none"/><rect id="rect3956" width="150" height="30" x="250" y="472.362" fill="#f99" fill-opacity="1" fill-rule="nonzero" stroke="#000" stroke-dasharray="none" stroke-dashoffset="0" stroke-linecap="round" stroke-linejoin="round" stroke-miterlimit="4" stroke-opacity="1" stroke-width="2.5" color="#000" display="inline" enable-background="accumulate" overflow="visible" ry="0" visibility="visible" style="marker:none"/><rect id="rect3148" width="150" height="30" x="250" y="512.362" fill="#f99" fill-opacity="1" fill-rule="nonzero" stroke="#000" stroke-dasharray="none" stroke-dashoffset="0" stroke-linecap="round" stroke-linejoin="round" stroke-miterlimit="4" stroke-opacity="1" stroke-width="2.5" color="#000" display="inline" enable-background="accumulate" overflow="visible" ry="0" visibility="visible" style="marker:none"/><text id="text3136" x="390" y="530.362" fill="#000" fill-opacity="1" stroke="none" font-family="Bitstream Vera Sans" font-size="20" font-style="normal" font-weight="normal" letter-spacing="0" word-spacing="0" xml:space="preserve" style="line-height:125%"><tspan id="tspan3138" x="390" y="530.362" font-size="10" text-anchor="end" style="text-align:end">colord_unregister_profiles</tspan></text><text id="text3140" x="384" y="494.362" fill="#000" fill-opacity="1" stroke="none" font-family="Bitstream Vera Sans" font-size="20" font-style="normal" font-weight="normal" letter-spacing="0" word-spacing="0" xml:space="preserve" style="line-height:125%"><tspan style="text-align:end" id="tspan3142" x="384" y="494.362" font-size="10" text-anchor="end">colord_register_profiles</tspan></text><text id="text3144" x="390" y="484.362" fill="#000" fill-opacity="1" stroke="none" font-family="Bitstream Vera Sans" font-size="20" font-style="normal" font-weight="normal" letter-spacing="0" word-spacing="0" xml:space="preserve" style="line-height:125%"><tspan id="tspan3146" x="390" y="484.362" font-size="10" text-anchor="end" style="text-align:end">colord_unregister_profiles</tspan></text><text id="text3152" x="140" y="492.362" fill="#000" fill-opacity="1" stroke="none" font-family="Bitstream Vera Sans" font-size="20" font-style="normal" font-weight="normal" letter-spacing="0" word-spacing="0" xml:space="preserve" style="line-height:125%"><tspan style="text-align:center" id="tspan3154" x="140" y="492.362" font-size="16" text-anchor="middle">cupsdSetPrinterAttrs</tspan></text><text id="text3158" x="140" y="532.362" fill="#000" fill-opacity="1" stroke="none" font-family="Bitstream Vera Sans" font-size="20" font-style="normal" font-weight="normal" letter-spacing="0" word-spacing="0" xml:space="preserve" style="line-height:125%"><tspan id="tspan3160" x="140" y="532.362" font-size="16" text-anchor="middle" style="text-align:center">cupsdRenamePrinter</tspan></text><text id="text3164" x="140" y="572.362" fill="#000" fill-opacity="1" stroke="none" font-family="Bitstream Vera Sans" font-size="20" font-style="normal" font-weight="normal" letter-spacing="0" word-spacing="0" xml:space="preserve" style="line-height:125%"><tspan style="text-align:center" id="tspan3166" x="140" y="572.362" font-size="16" text-anchor="middle">cupsdDeletePrinter</tspan></text><text id="text3168" x="390" y="570.362" fill="#000" fill-opacity="1" stroke="none" font-family="Bitstream Vera Sans" font-size="20" font-style="normal" font-weight="normal" letter-spacing="0" word-spacing="0" xml:space="preserve" style="line-height:125%"><tspan style="text-align:end" id="tspan3170" x="390" y="570.362" font-size="10" text-anchor="end">colord_unregister_profiles</tspan></text><text id="text3062-6" x="310" y="462.362" fill="#000" fill-opacity="1" stroke="none" font-family="Bitstream Vera Sans" font-size="20" font-style="normal" font-weight="normal" letter-spacing="0" word-spacing="0" xml:space="preserve" style="line-height:125%"><tspan style="text-align:center" id="tspan3064-8" x="310" y="462.362" text-anchor="middle">Linux</tspan></text><text id="text4062" x="630" y="462.362" fill="#000" fill-opacity="1" stroke="none" font-family="Bitstream Vera Sans" font-size="20" font-style="normal" font-weight="normal" letter-spacing="0" word-spacing="0" xml:space="preserve" style="line-height:125%"><tspan id="tspan4064" x="630" y="462.362" text-anchor="middle" style="text-align:center">OSX</tspan></text></g></svg>